# xmcd CD database file
#
# Track frame offsets:
#	150
#	22030
#	34990
#	56257
#	73875
#	88909
#	105872
#	120832
#	140467
#	158032
#	171497
#	189659
#	205695
#	225313
#	247277
#	264300
#	288119
#	304483
#	323529
#	337745
#
# Disc length: 4725 seconds
#
# Revision: 0
# Processed by: cddbd v1.5.2PL0 Copyright (c) Steve Scherf et al.
# Submitted via: CDex 1.51
#
DISCID=13127314
DTITLE=Salsa - SALSA Spirit CD2 Fiesta!
DYEAR=2009
DGENRE=Salsa
TTITLE0=01 RAY BARRETTO Ay No 
TTITLE1=02 COMPAY SEGUNDO Jardinero Oe Amor 
TTITLE2=03 FRUKO El Preso 
TTITLE3=04 JESUS PAGAN Y SU ORQUESTRA Salsa Oe La Mata 
TTITLE4=05 JOE ARROYO En Barranquilla Me Quedo 
TTITLE5=06 DAVID ALAREZ and JUEGOS OE MANOS Cuida'O Cuida'O 
TTITLE6=07 CHANO POZO and DIZZIE GILLESPIE Manteca 
TTITLE7=08 TONY CANALES Rumba Para Los Rumberos 
TTITLE8=09 PEDRO CONGA Y SU ORQ, INTERNATIONAL Eso Me Gusta 
TTITLE9=10 ISMAEL RIVERA El Negro Bembon 
TTITLE10=11 ANTHONY CRUZ Yen 
TTITLE11=12 SAAC DELGADO El Macao 
TTITLE12=13 TITO ROJAS Oigame Senora 
TTITLE13=14 ELiO REVE and SU CHARANGON Chanqui A La Loma Oel Chivo 
TTITLE14=15 EDDIE PALMIERI, ISMAEL QUINTANA and LALO RODRIGUEZ Nunca Contigo 
TTITLE15=16 HECTOR LAVOE Mi Gente [Louie Vega EOL Remixl 
TTITLE16=17 VANNY JORDAN Protejete 
TTITLE17=18 NG LA BANDA Los Sitios Enteros 
TTITLE18=19 OCHO Y MEDIAA La Hora 
TTITLE19=20 QUANTIC and NICKODEMUS Mi Swing Es Tropical 
EXTD=YEAR: 2009
EXTT0=
EXTT1=
EXTT2=
EXTT3=
EXTT4=
EXTT5=
EXTT6=
EXTT7=
EXTT8=
EXTT9=
EXTT10=
EXTT11=
EXTT12=
EXTT13=
EXTT14=
EXTT15=
EXTT16=
EXTT17=
EXTT18=
EXTT19=
PLAYORDER=
